<?xml version="1.0" encoding="utf-8"?>
<!-- Generator: Adobe Illustrator 19.1.0, SVG Export Plug-In . SVG Version: 6.00 Build 0)  -->
<!DOCTYPE svg PUBLIC "-//W3C//DTD SVG 1.1//EN" "http://www.w3.org/Graphics/SVG/1.1/DTD/svg11.dtd">
<svg version="1.1" id="Layer_1" xmlns="http://www.w3.org/2000/svg" xmlns:xlink="http://www.w3.org/1999/xlink" x="0px" y="0px"
	 viewBox="-155 247 300 300" style="enable-background:new -155 247 300 300;" xml:space="preserve">
<style type="text/css">
	.st0{fill:#313133;}
</style>
<g>
	<polygon class="st0" points="-19.9,454 -13,459.8 -6.2,451.6 -13.1,445.9 	"/>
	<path class="st0" d="M21.7,453.7c-0.4-0.8-1-1.3-1.3-1.2c-0.2,0.1,0,0.8,0,1.2c0,0.8-0.3,1.4-1,1.7c-0.6,0.3-2.1,0.8-3.2-1.2
		c-0.9-1.6-1.8-3.8-2.1-4.7c-0.3-0.8-0.8-1.7-1.3-1.5c-0.3,0.1-0.4,0.7-0.2,1.4c0.2,0.7,1.4,3.8,1.4,3.8c0.8,2.3,2.3,5,4.2,6.4
		c2.1,1.5,3.2,0.9,3.6,0.8c0.3-0.1,1.6-1,1.2-3.1C22.4,455.1,22.1,454.5,21.7,453.7"/>
	<path class="st0" d="M-27.4,335c3.5-0.1,6.2-3,6.1-6.5c-0.1-3.5-3-6.2-6.5-6.1c-3.5,0.1-6.2,3-6.1,6.5
		C-33.8,332.3-30.9,335.1-27.4,335"/>
	<path class="st0" d="M11.7,356.7c-0.2,0.7-0.9,1.9-1.8,2.8c-0.6,0.6-3.5,3.8-6.3,6.9c-2.5,2.7-4.8,5.3-5.4,5.9
		c-1.2,1.3-1.8,2.6-1.7,3.3l0.7,3.6c0.2-0.7,0.9-1.9,1.8-2.8c0.6-0.6,3.5-3.8,6.3-6.8c2.5-2.7,4.8-5.3,5.4-5.9
		c1.2-1.3,1.8-2.6,1.7-3.3L11.7,356.7z"/>
	<rect x="1.1" y="394.7" transform="matrix(0.9046 0.4262 -0.4262 0.9046 171.0203 35.7837)" class="st0" width="9" height="10.6"/>
	<polygon class="st0" points="30.4,410.3 25.9,419.8 34,423.7 38.5,414.1 	"/>
	<polygon class="st0" points="-11.6,431.7 -18.3,439.8 -11.4,445.6 -4.7,437.4 	"/>
	<path class="st0" d="M-39.3,366c0,0,1.8-1.5,1.2-2.2c-0.3-0.4-2,1-2,1s-5.1,3.6-7.1,8.4c-1.2,2.9-1.2,6.1-0.5,7.6
		c0.7,1.5,2.4,3,4.6,1.2c1.5-1.2,2.2-3,2.6-4.4c0.2-0.9,0.3-1.4,0.3-1.9c0-0.5-0.2-1-0.7-0.9c-1.5,0.5-0.6,2.4-1.6,3.4
		c-0.8,0.5-2.9,0.2-3.3-1.8c-0.4-2,1.1-4.7,2.6-6.4C-41.8,368.3-39.3,366-39.3,366"/>
	<path class="st0" d="M-18.7,415c0.4-2.3,0.7-2.8,1.5-3.4c1.9-1.7,6.7-6.1,9-8.1c1.4-1.2,2.6-2.5,3.4-4.1c1-1.9,0.5-4.5,0.5-4.5
		l-1.4-9.5c-0.4,1.4-2,3.3-4.3,5.6c-2.5,2.5-8.9,8-9.5,8.6c-0.6,0.6-2.7,2.1-3.6,9.4c-2.4,19.8-6.3,29.2-13.3,32.4
		c-1.9,0.9-3.9,1.3-6.3,1.3c-12.9-0.1-16.2-15.8-16.2-24.4c0-0.5,0-1,0-1.5c3,4,7.4,8,12.8,7.2c8.7-1.3,6-15.9,4.7-19.3
		c-1.2-3.4-4.6-13.6-11.9-13.1c-5.2,0.4-7.6,6.4-8.7,11.5c-1-4-1.5-8.8-1.2-12.5c0.8-8.8,3.8-19.9,16.7-30.8
		c9.2-7.7,19.6-13.3,25.4-17.9c3.7-2.9,6-6.1,7.3-9.2c-0.4,3-1.1,6.2-2.5,9.9c-5.3,14-21.6,37.2-21.8,70c0,10.1,0.9,18.8,2.5,26.3
		c0.9-0.6,1.7-1.4,2.5-2.3c-1.1-5.3-1.8-11.3-1.8-17.5c0-32.7,16.1-55.9,21.4-69.9c2.8-7.4,2.8-12.8,2.8-18.1c0-6.5-1.5-13.3-2.8-16
		c-1.5-2.6-3.4-3.8-6.3-3.7c-3.5,0.1-6.2,3-6.1,6.5c0.1,3.5,3,6.2,6.5,6.1c1.9-0.1,3.6-0.9,4.7-2.3l0.1-0.1c0.7,5-1.7,9-7.3,13.7
		c-5.7,4.8-19.2,11.1-28.8,18.7c-13.4,10.6-16.6,22.2-17.4,31.5c-0.4,4.2,0.3,9.7,1.4,14.2c1.4,5.7,3.5,10.1,3.5,10.1
		s0.1,0.2,0.3,0.5c-0.3,6.2,0.3,17,3.8,25.2c4.7,10.5,13.2,19.2,25.3,16.6C-21.4,449.4-20.1,429.5-18.7,415 M-51.9,403.3
		c5.1-2.4,7.1,3.7,7.1,3.7c-0.6,6.6-8.3,8.2-13.1,4C-56.8,407.9-55,405.1-51.9,403.3"/>
	<path class="st0" d="M-12.9,410.1l-3.3,3c3.5,8,8.7,15,14.7,20.1c0.6-4.2,1.3-7.2,1.9-9.3C-5.7,419.6-10.1,414.9-12.9,410.1"/>
	<path class="st0" d="M57.6,393.8c0,0-1.3-13.9-8.5-28.6c-11.6-25.8-33-51.3-46.1-67.8c-4.2-5.2-6.6-9.8-7.9-13.7
		c-2.4-7.6-0.9-13.5,2.2-16.1c0.7-0.6,1.5-1.2,2.3-1.6c0.5-0.2,0.3-0.8-0.1-0.8c-0.3-0.1-1.2-0.1-3.4,1.5c-3.2,2.3-5.9,7.4-5.9,15.3
		c0,4.8,1.4,10.6,5.1,17c-5,6.8-5.9,13.1-3.8,19.1c1.6,4.6,2.4,5.7,3.2,8.5c1.8,6.9-0.2,15.3-5.7,28.1
		c-4.4,10.5-10.2,21.4-10.2,34.7c0,3.1,0.3,6,0.7,9c0.5-0.5,1.6-1.5,3-2.8c-0.6-10.5,3.5-21,8.6-30.4c7.5-13.8,8.4-27.8,6.9-35.5
		c5.2,5.6,14.1,13.9,19.2,22.5c1.7,2.9,2.8,5.6,3,8.4c0.2,6.7-1.9,11.6-6.1,16.3c-3.5,4-2.3,7.6-2.2,8.2c0.3,1.1,1.7,5.5,2.7,8.4
		c3.9-7.6,14.7-11.9,19.5-18.2c1.1,7.8-4.8,15.2-9.1,20.2c-1,1.1-2.2,2.3-3.5,3.5c-8.3,7.9-13.7,13.3-16.6,18.3
		c-0.7,1.1-1.9,3.6-2.5,5.5c-0.8,2.4-1.9,6.5-2.8,13.7c-0.7,4.3-1.5,9.3-1.7,11.6c-0.6,5.1-2.1,13.3-8.5,15.6
		c-0.3,0.1-0.7,0.2-1,0.3l0,0c-6,1.3-12.2-3.7-16.7-12.8c-0.9,0.7-1.9,1.3-3,1.8C-25,467.4-15.8,474-7.8,474c6.1,0,10.9-3.1,12.4-12
		c0.8-4.5,1.4-9.5,1.9-14.3c0.3-2.3,1.4-15.5,3.5-20.2c2.6-5.4,8.4-10.5,16.9-19.3c5.3-5.5,8.2-10,9.7-13.6c5-9.1-1.2-30.7-2.4-34.6
		c0-0.1-0.1-0.2-0.1-0.2c-0.1,0-0.1,0.1-0.2,0.2c0,0,0,0.1,0,0.1c-2.2,3.6-6.1,6.9-9.8,9.5c2-5.6,1.5-9.9,0.7-13.5v0
		c-0.1-0.2-0.1-0.4-0.1-0.6l0,0c-3.7-14.3-18.4-27.1-25-34.4c-8.6-9.5-5.7-15.7-2.5-19.6c0.6,0.9,1.2,1.8,1.9,2.7
		c11.7,15.8,33.8,41,45.4,64.9c2.9,6,5.2,12,6.4,17.6c4.6,24.8-12.8,50-38.8,42.9l0,0c-0.2,0-0.3-0.1-0.5-0.1
		c-0.7,2.2-1.4,5.7-2,10.5c3.9,1.7,8.2,2.7,12.4,2.8l0,0c0.3,0,0.6,0,0.9,0C44,443.2,60.7,427.2,57.6,393.8"/>
	<polygon class="st0" points="-66.9,513.8 -75.4,513.8 -75.4,492.9 -82.4,492.9 -82.4,519.8 -66.9,519.8 	"/>
	<path class="st0" d="M-60.8,518.1c0,4.1-1.5,5.6-4.8,4.7c-0.2,0-0.4-0.1-0.6-0.2l-1.6,5.8c0.4,0.2,0.7,0.3,1.1,0.5
		c7.7,2.9,12.8-1.4,12.8-8.9v-27.2h-6.9V518.1z"/>
	<polygon class="st0" points="12.8,509.4 21.8,509.4 21.8,503.7 12.8,503.7 12.8,498.8 23.2,498.8 23.2,492.9 5.9,492.9 5.9,519.8 
		24.2,519.8 24.2,514.1 12.8,514.1 	"/>
	<polygon class="st0" points="36.6,509.4 45.6,509.4 45.6,503.7 36.6,503.7 36.6,498.8 47.1,498.8 47.1,492.9 29.7,492.9 
		29.7,519.8 48,519.8 48,514.1 36.6,514.1 	"/>
	<path class="st0" d="M-103.8,492.9l-9.2,27h6.9l1.6-5h8.9l1.5,5h7.4l-9.4-27L-103.8,492.9L-103.8,492.9z M-102.5,508.7l2.5-8.6
		l2.5,8.6H-102.5z"/>
	<path class="st0" d="M-40.6,492.9l-9.2,27h6.9l1.6-5h8.9l1.5,5h7.4l-9.4-27L-40.6,492.9L-40.6,492.9z M-39.3,508.7l2.6-8.6l2.6,8.6
		H-39.3z"/>
	<path class="st0" d="M86,492.9l-9.2,27h6.9l1.6-5h8.9l1.5,5h7.4l-9.4-27L86,492.9L86,492.9z M87.2,508.7l2.6-8.6l2.6,8.6H87.2z"/>
	<path class="st0" d="M71.1,510.1c-1-2.4-1.4-2.9-2.4-3.3c0.2,0,0.3-0.1,0.5-0.2c3-1.4,4.5-4.9,3.3-8.7c-0.9-3.2-3.4-4.9-8-4.9H53.5
		v27h6.9v-10.1H62c1.1,0,1.8,0.5,2.4,1.9l0.4,0.9L65,513l2.6,6.8h7.2l-3.4-8.8C71.3,510.7,71.2,510.4,71.1,510.1 M65.3,503
		c-0.4,0.5-1,0.7-2.3,0.8h-0.6h-2.1v-5.1h2.1c0.2,0,0.3,0,0.5,0c1.1,0,1.5,0.1,2,0.4C66,499.9,66.3,501.8,65.3,503"/>
	<polygon class="st0" points="-0.2,499.7 -0.2,492.9 -18.8,492.9 -18.8,498.8 -9.2,498.8 -19.1,512.9 -19.1,519.8 0,519.8 0,513.9 
		-10,513.9 	"/>
</g>
</svg>
